PathFileType	4	(X/Y/Z)	./resultDataOpenSim/trcMotMarkerGrf/sub09/qtm-04-05.trc
DataRate	CameraRate	NumFrames	NumMarkers	Units	OrigDataRate	OrigDataStartFrame	OrigNumFrames
250.000000	250.000000	6	24	m	250.000000	376	501
Frame#	Time	L.Toe.Tip			R.Toe.Tip			L.Ankle.Lat			R.Ankle.Lat			L.Ankle.Med			R.Ankle.Med			L.Heel			R.Heel			L.Knee.Lat			R.Knee.Lat			L.Knee.Med			R.Knee.Med			L.Thigh.Upper			R.Thigh.Upper			L.ASIS			R.ASIS			V.Sacral			L.Acromium			R.Acromium			C7			L.Elbow			R.Elbow			L.Wrist.Lat			R.Wrist.Lat
		X1	Y1	Z1	X2	Y2	Z2	X3	Y3	Z3	X4	Y4	Z4	X5	Y5	Z5	X6	Y6	Z6	X7	Y7	Z7	X8	Y8	Z8	X9	Y9	Z9	X10	Y10	Z10	X11	Y11	Z11	X12	Y12	Z12	X13	Y13	Z13	X14	Y14	Z14	X15	Y15	Z15	X16	Y16	Z16	X17	Y17	Z17	X18	Y18	Z18	X19	Y19	Z19	X20	Y20	Z20	X21	Y21	Z21	X22	Y22	Z22	X23	Y23	Z23	X24	Y24	Z24

376	1.5	0.97425775	0.13763781	-0.048308442	1.0985313	0.039375122	0.099412855	0.89438764	0.26978087	-0.072266732	0.95132618	0.059720096	0.12993364	0.92084307	0.25367327	0.022147825	0.96607878	0.098334515	0.039027242	0.81493505	0.28548466	-0.027144338	0.8820443	0.043814014	0.079518102	1.2085162	0.5248683	-0.068737639	1.0787879	0.4981783	0.19408321	1.2078473	0.51444774	0.05878242	1.0640423	0.48791966	0.070386215	1.0167285	0.88672733	-0.11160679	0.99807324	0.90006142	0.25897404	1.0841672	0.97477344	-0.052463878	1.0880663	0.98428218	0.18482021	0.91729044	1.0361808	0.062772523	1.0837919	1.4323558	-0.10875766	1.0644142	1.4439476	0.222436	1.0037023	1.4858037	0.054812723	0.94756148	1.0876023	-0.15557454	0.92544616	1.100007	0.31679319	1.0757689	0.85940968	-0.1893314	1.1327758	0.91258966	0.30674348
377	1.504	0.99170253	0.13609673	-0.047635118	1.0987387	0.03942031	0.099329809	0.90856728	0.26585974	-0.072252374	0.95145612	0.060152076	0.12974911	0.93554408	0.25050892	0.022110445	0.96650422	0.098788501	0.038926703	0.82871963	0.27966809	-0.027438918	0.88232313	0.044320741	0.079335505	1.2174517	0.52773585	-0.06850048	1.0802468	0.49838039	0.19424156	1.2166473	0.5172747	0.058809263	1.0654673	0.48811513	0.070381161	1.0229396	0.88801835	-0.1118633	1.0029715	0.90087309	0.25871233	1.0894882	0.97605723	-0.052407374	1.0930842	0.98507819	0.18484451	0.92244649	1.0369691	0.06248247	1.0886212	1.433257	-0.10892111	1.0694768	1.445005	0.22235754	1.0087238	1.4867539	0.054785244	0.95148502	1.0889313	-0.15570505	0.93100917	1.1007207	0.31702478	1.0785125	0.86027715	-0.19053977	1.1398695	0.91501097	0.30544793
378	1.508	1.0092961	0.13443203	-0.046776792	1.0990181	0.039445835	0.099215977	0.92288129	0.26172417	-0.072255394	0.95158882	0.060592136	0.12958731	0.95000897	0.24725417	0.022177548	0.96680162	0.099239549	0.038796674	0.84263337	0.27366385	-0.027760341	0.88251769	0.044914691	0.07910145	1.2261983	0.53052412	-0.068305725	1.0817377	0.49852168	0.19444674	1.2255588	0.51999988	0.058847723	1.0667813	0.48837652	0.070306165	1.0290644	0.88922546	-0.11221062	1.0083982	0.90170881	0.25834863	1.0948687	0.97726564	-0.052367722	1.0980859	0.98584208	0.18487003	0.92751703	1.0376574	0.062171427	1.093454	1.4341002	-0.10907159	1.0745613	1.4460169	0.22227073	1.0137495	1.4876449	0.054767975	0.95545638	1.0902173	-0.15586009	0.93657357	1.1013834	0.31725769	1.0812965	0.8611147	-0.19172258	1.1469285	0.91738316	0.30416421
379	1.512	1.0269763	0.1326665	-0.045756416	1.0992156	0.039413132	0.099123111	0.93733099	0.2574079	-0.072267043	0.951731	0.061034197	0.12943966	0.96439402	0.24391201	0.022314864	0.96696314	0.099690135	0.038630047	0.85662909	0.26751525	-0.02811075	0.88265185	0.045574594	0.078843777	1.2347641	0.53318769	-0.068150067	1.083236	0.49858504	0.19468664	1.2342744	0.52260164	0.058825218	1.0681453	0.48862121	0.070231906	1.0350837	0.89035266	-0.11260665	1.0137485	0.90249708	0.25799375	1.1002959	0.97839653	-0.052342974	1.1030639	0.98656816	0.18489133	0.93245508	1.0382121	0.061839078	1.0982899	1.4348768	-0.10919352	1.0797299	1.447011	0.22213671	1.0187856	1.4884749	0.054766956	0.95943502	1.091458	-0.15600863	0.94213908	1.1019969	0.31749114	1.0841089	0.86191867	-0.19288376	1.1539669	0.91970953	0.30289128
380	1.516	1.0446739	0.13084095	-0.044611166	1.0992069	0.039358593	0.099112339	0.95192269	0.2529337	-0.072279049	0.95188058	0.061474321	0.12929883	0.97874304	0.24048662	0.022512292	0.96710848	0.10013291	0.038464946	0.87075546	0.26121376	-0.028519319	0.88273772	0.046239946	0.078535381	1.2431957	0.53567194	-0.068014679	1.0846665	0.49865434	0.19487618	1.2427754	0.52508101	0.058744543	1.0697033	0.48877323	0.070188846	1.0409495	0.89140263	-0.11297841	1.018769	0.90322624	0.25766919	1.1057571	0.97945661	-0.052331203	1.1080259	0.98725889	0.18490606	0.93728367	1.0386334	0.061476799	1.1031315	1.4355909	-0.10929329	1.0850364	1.4480073	0.22192918	1.0238339	1.4892506	0.054773092	0.96342035	1.0926508	-0.15614703	0.94770403	1.1025587	0.31771948	1.0869497	0.86268478	-0.19402723	1.1609958	0.92199053	0.30162762
381	1.52	1.0623894	0.12897115	-0.043388367	1.0990599	0.039362606	0.09918611	0.96666378	0.2483026	-0.072283012	0.95202378	0.061909811	0.12916213	0.9931049	0.23696143	0.022748154	0.96732413	0.10056012	0.038328633	0.88506919	0.2547144	-0.028983372	0.88276	0.046885031	0.078129527	1.251528	0.53796382	-0.0678903	1.0860155	0.49877291	0.19498329	1.2510968	0.52743653	0.058623721	1.0714165	0.4888689	0.070182888	1.046697	0.89237604	-0.11329589	1.0234727	0.9039237	0.25733273	1.1112475	0.9804504	-0.052328756	1.1129827	0.98791983	0.18492059	0.9421279	1.0389854	0.061082443	1.1079811	1.4362496	-0.10938285	1.0904344	1.4489791	0.22167565	1.0288782	1.4899796	0.054765633	0.96742709	1.093795	-0.15628747	0.95325886	1.1030615	0.31793259	1.0898313	0.86340909	-0.19515094	1.1680034	0.92421872	0.30037458
